<?xml version="1.0" standalone="no"?>
<!DOCTYPE svg PUBLIC "-//W3C//DTD SVG 20010904//EN"
 "http://www.w3.org/TR/2001/REC-SVG-20010904/DTD/svg10.dtd">
<svg version="1.0" xmlns="http://www.w3.org/2000/svg"
 width="761.000000pt" height="761.000000pt" viewBox="0 0 761.000000 761.000000"
 preserveAspectRatio="xMidYMid meet">
<metadata>
Created by potrace 1.11, written by Peter Selinger 2001-2013
</metadata>
<g transform="translate(0.000000,761.000000) scale(0.100000,-0.100000)"
fill="#000000" stroke="none">
<path d="M3667 7604 c-1 -1 -54 -5 -118 -8 -63 -4 -126 -8 -140 -11 -13 -2
-46 -6 -74 -10 -98 -11 -301 -46 -360 -60 -33 -9 -70 -17 -83 -20 -12 -2 -71
-18 -131 -35 -367 -104 -734 -273 -1049 -482 -115 -76 -165 -110 -172 -118 -3
-3 -34 -28 -70 -55 -475 -358 -912 -921 -1156 -1487 -75 -175 -177 -473 -200
-587 -3 -12 -12 -53 -20 -90 -9 -36 -18 -77 -20 -91 -3 -14 -9 -47 -14 -75
-15 -80 -40 -272 -48 -365 -14 -172 -6 -644 13 -734 2 -12 6 -41 9 -66 4 -43
21 -148 31 -200 2 -14 7 -38 10 -55 52 -277 160 -600 296 -884 234 -488 553
-904 964 -1256 809 -693 1879 -1013 2937 -879 873 110 1655 503 2268 1139 43
44 93 98 111 120 19 22 39 45 45 50 65 59 312 413 413 593 204 363 369 816
426 1172 4 25 9 54 11 65 9 45 13 73 20 130 3 33 8 69 10 80 25 130 24 754 -1
855 -2 8 -6 40 -10 71 -3 31 -8 67 -10 80 -3 13 -7 38 -10 54 -20 143 -82 386
-145 575 -224 673 -665 1303 -1220 1745 -41 33 -77 62 -80 66 -16 18 -273 190
-365 244 -112 66 -310 167 -425 218 -382 167 -831 275 -1252 303 -91 6 -386
12 -391 8z"/>
</g>
</svg>
